STARTFONT 2.1
COMMENT METAFONT output 1995.04.13:1748
COMMENT fontid=MSBM V2.2
COMMENT codingscheme=TeX math symbols
COMMENT fontfacebyte
COMMENT jobname=msbm10
COMMENT mag=0.35
COMMENT mode=cx
COMMENT pixels_per_inch=300
COMMENT blacker=0
COMMENT fillin=0.2
COMMENT o_correction=0.6
COMMENT Checksum 88b616c8
COMMENT 
COMMENT This file is made by pktobdf using the above specified pk file.
COMMENT 
FONT -metafont-msbm10-medium-r-normal--15-140-75-75-P-88-MetaFont-FONTSPECIFIC
SIZE 15 75 75
FONTBOUNDINGBOX 34 21 -1 -8
STARTPROPERTIES 21
FONT_ASCENT 12
FONT_DESCENT 6
FOUNDRY "metafont"
FAMILY_NAME "msbm10"
WEIGHT_NAME "medium"
SLANT "r"
SETWIDTH_NAME "normal"
ADD_STYLE_NAME ""
PIXEL_SIZE 15
POINT_SIZE 140
RESOLUTOIN_X 75
RESOLUTOIN_Y 75
SPACING "P"
AVERAGE_WIDTH 88
CHARSET_REGISTRY "MetaFont"
CHARSET_ENCODING "FONTSPECIFIC"
AVG_CAPITAL_WIDTH 20
AVG_LOWERCASE_WIDTH 13
COPYRIGHT "MetaFont (public domain)"
DEVICE_FONT_NAME "msbm10"
FULLNAME "msbm10"
ENDPROPERTIES
CHARS 123
STARTCHAR Gamma
ENCODING 0
SWIDTH 750 0
DWIDTH 11 0
BBX 8 15 1 -4
BITMAP
01
06
18
60
80
60
18
06
01
08
ff
08
08
ff
08
ENDCHAR
STARTCHAR Delta
ENCODING 1
SWIDTH 750 0
DWIDTH 11 0
BBX 8 15 1 -4
BITMAP
80
60
18
06
01
06
18
60
80
08
ff
08
08
ff
08
ENDCHAR
STARTCHAR Theta
ENCODING 2
SWIDTH 750 0
DWIDTH 11 0
BBX 8 16 1 -4
BITMAP
02
02
05
06
0c
38
c8
48
30
1c
13
20
20
ff
40
40
ENDCHAR
STARTCHAR Lamdba
ENCODING 3
SWIDTH 750 0
DWIDTH 11 0
BBX 8 16 1 -4
BITMAP
02
02
84
44
34
0c
0b
0a
1c
30
d0
20
20
ff
40
40
ENDCHAR
STARTCHAR Xi
ENCODING 4
SWIDTH 750 0
DWIDTH 11 0
BBX 8 13 1 -3
BITMAP
02
02
05
06
18
68
90
70
18
26
21
40
40
ENDCHAR
STARTCHAR Pi
ENCODING 5
SWIDTH 750 0
DWIDTH 11 0
BBX 8 13 1 -3
BITMAP
02
02
84
64
18
0e
11
16
18
60
a0
40
40
ENDCHAR
STARTCHAR Sigma
ENCODING 6
SWIDTH 750 0
DWIDTH 11 0
BBX 8 13 1 -3
BITMAP
02
02
05
05
0a
0c
f0
1c
12
21
21
40
40
ENDCHAR
STARTCHAR Upsilon
ENCODING 7
SWIDTH 750 0
DWIDTH 11 0
BBX 8 13 1 -3
BITMAP
02
02
84
84
48
38
1f
30
50
a0
a0
40
40
ENDCHAR
STARTCHAR Phi
ENCODING 8
SWIDTH 750 0
DWIDTH 11 0
BBX 8 15 1 -4
BITMAP
01
06
18
60
80
60
18
06
01
02
ff
08
10
ff
40
ENDCHAR
STARTCHAR Psi
ENCODING 9
SWIDTH 750 0
DWIDTH 11 0
BBX 8 15 1 -4
BITMAP
80
60
18
06
01
06
18
60
80
02
ff
08
10
ff
40
ENDCHAR
STARTCHAR Omega
ENCODING 10
SWIDTH 750 0
DWIDTH 11 0
BBX 8 16 1 -4
BITMAP
02
02
05
06
0c
38
c8
48
30
9c
53
30
2c
23
40
40
ENDCHAR
STARTCHAR arrowup
ENCODING 11
SWIDTH 750 0
DWIDTH 11 0
BBX 8 16 1 -4
BITMAP
02
02
84
44
34
0c
0b
0a
1c
31
d2
2c
30
e0
40
40
ENDCHAR
STARTCHAR arrowdown
ENCODING 12
SWIDTH 750 0
DWIDTH 11 0
BBX 8 14 1 -5
BITMAP
01
06
18
60
80
60
18
06
01
00
04
ff
10
20
ENDCHAR
STARTCHAR quotesingle
ENCODING 13
SWIDTH 750 0
DWIDTH 11 0
BBX 8 14 1 -5
BITMAP
80
60
18
06
01
06
18
60
80
00
04
ff
10
20
ENDCHAR
STARTCHAR exclamdown
ENCODING 14
SWIDTH 750 0
DWIDTH 11 0
BBX 8 16 1 -4
BITMAP
02
02
05
05
06
0c
f8
0c
12
11
11
20
20
ff
40
40
ENDCHAR
STARTCHAR questiondown
ENCODING 15
SWIDTH 750 0
DWIDTH 11 0
BBX 8 16 1 -4
BITMAP
02
02
84
84
44
38
0f
38
50
90
90
20
20
ff
40
40
ENDCHAR
STARTCHAR dotlessi
ENCODING 16
SWIDTH 750 0
DWIDTH 11 0
BBX 8 17 1 -6
BITMAP
01
01
02
0c
f0
0c
02
01
01
04
08
69
99
99
96
10
20
ENDCHAR
STARTCHAR dotlessj
ENCODING 17
SWIDTH 750 0
DWIDTH 11 0
BBX 8 17 1 -6
BITMAP
80
80
40
30
0f
30
40
80
80
04
08
69
99
99
96
10
20
ENDCHAR
STARTCHAR grave
ENCODING 18
SWIDTH 750 0
DWIDTH 11 0
BBX 8 17 1 -6
BITMAP
01
06
18
60
80
60
18
06
01
04
08
69
99
99
96
10
20
ENDCHAR
STARTCHAR acute
ENCODING 19
SWIDTH 750 0
DWIDTH 11 0
BBX 8 17 1 -6
BITMAP
80
60
18
06
01
06
18
60
80
04
08
69
99
99
96
10
20
ENDCHAR
STARTCHAR caron
ENCODING 20
SWIDTH 750 0
DWIDTH 11 0
BBX 8 19 1 -6
BITMAP
02
02
03
06
0c
34
c8
48
38
1c
13
10
ff
20
20
ff
40
40
40
ENDCHAR
STARTCHAR breve
ENCODING 21
SWIDTH 750 0
DWIDTH 11 0
BBX 8 19 1 -6
BITMAP
02
02
82
44
34
0c
0b
0a
0c
30
d0
10
ff
20
20
ff
40
40
40
ENDCHAR
STARTCHAR macron
ENCODING 22
SWIDTH 750 0
DWIDTH 11 0
BBX 8 15 1 -4
BITMAP
01
01
02
0c
f0
0c
02
01
01
02
ff
08
10
ff
40
ENDCHAR
STARTCHAR ring
ENCODING 23
SWIDTH 750 0
DWIDTH 11 0
BBX 8 15 1 -4
BITMAP
80
80
40
30
0f
30
40
80
80
02
ff
08
10
ff
40
ENDCHAR
STARTCHAR cedilla
ENCODING 24
SWIDTH 750 0
DWIDTH 11 0
BBX 8 18 1 -7
BITMAP
01
01
02
7c
fc
02
01
01
00
04
69
99
8e
08
71
99
96
20
ENDCHAR
STARTCHAR germandbls
ENCODING 25
SWIDTH 750 0
DWIDTH 11 0
BBX 8 18 1 -7
BITMAP
80
80
40
3e
3f
40
80
80
00
04
69
99
8e
08
71
99
96
20
ENDCHAR
STARTCHAR ae
ENCODING 26
SWIDTH 750 0
DWIDTH 11 0
BBX 8 19 1 -8
BITMAP
01
06
18
e0
c0
30
0c
03
04
04
69
99
8e
08
71
99
96
20
20
ENDCHAR
STARTCHAR oe
ENCODING 27
SWIDTH 750 0
DWIDTH 11 0
BBX 8 19 1 -8
BITMAP
80
60
18
06
03
0c
30
c0
04
04
69
99
8e
08
71
99
96
20
20
ENDCHAR
STARTCHAR oslash
ENCODING 28
SWIDTH 750 0
DWIDTH 11 0
BBX 8 7 1 0
BITMAP
04
04
79
ff
9e
20
20
ENDCHAR
STARTCHAR AE
ENCODING 29
SWIDTH 750 0
DWIDTH 11 0
BBX 8 12 1 -2
BITMAP
02
63
95
8e
08
08
ff
10
20
ff
40
40
ENDCHAR
STARTCHAR OE
ENCODING 30
SWIDTH 887 0
DWIDTH 13 0
BBX 12 13 0 -3
BITMAP
0010
0020
0040
0080
0080
0100
0200
0400
0800
1000
2000
4000
8000
ENDCHAR
STARTCHAR Oslash
ENCODING 31
SWIDTH 887 0
DWIDTH 13 0
BBX 12 13 0 -3
BITMAP
8000
4000
2000
1000
0800
0400
0200
0100
0080
0080
0040
0020
0010
ENDCHAR
STARTCHAR tilde
ENCODING 32
SWIDTH 750 0
DWIDTH 11 0
BBX 8 13 1 -4
BITMAP
3f
40
80
80
80
80
80
44
3f
08
10
ff
20
ENDCHAR
STARTCHAR exclam
ENCODING 33
SWIDTH 750 0
DWIDTH 11 0
BBX 8 14 1 -5
BITMAP
fc
02
01
01
01
01
09
0a
fc
20
20
ff
80
80
ENDCHAR
STARTCHAR quotedblright
ENCODING 34
SWIDTH 750 0
DWIDTH 11 0
BBX 8 17 1 -5
BITMAP
02
3f
42
84
84
84
88
88
48
3f
10
20
ff
20
40
ff
40
ENDCHAR
STARTCHAR numbersign
ENCODING 35
SWIDTH 750 0
DWIDTH 11 0
BBX 8 17 1 -5
BITMAP
02
fe
02
05
05
05
09
09
0a
fc
10
20
ff
20
40
ff
40
ENDCHAR
STARTCHAR dollar
ENCODING 36
SWIDTH 750 0
DWIDTH 11 0
BBX 8 18 1 -7
BITMAP
3f
40
80
80
80
80
80
40
3f
00
02
04
ff
08
10
ff
20
40
ENDCHAR
STARTCHAR percent
ENCODING 37
SWIDTH 750 0
DWIDTH 11 0
BBX 8 18 1 -7
BITMAP
fc
02
01
01
01
01
01
02
fc
00
02
04
ff
08
10
ff
20
40
ENDCHAR
STARTCHAR ampersand
ENCODING 38
SWIDTH 750 0
DWIDTH 11 0
BBX 8 16 1 -5
BITMAP
3f
40
80
80
80
80
80
42
3f
04
04
ff
08
10
ff
20
ENDCHAR
STARTCHAR quoteright
ENCODING 39
SWIDTH 750 0
DWIDTH 11 0
BBX 8 16 1 -5
BITMAP
fc
02
01
01
01
01
01
12
fc
10
20
ff
20
40
ff
40
ENDCHAR
STARTCHAR parenleft
ENCODING 40
SWIDTH 750 0
DWIDTH 11 0
BBX 8 13 1 -4
BITMAP
3f
40
80
80
80
80
80
40
3f
00
04
ff
20
ENDCHAR
STARTCHAR parenright
ENCODING 41
SWIDTH 750 0
DWIDTH 11 0
BBX 8 13 1 -4
BITMAP
fc
02
01
01
01
01
01
02
fc
00
08
ff
10
ENDCHAR
STARTCHAR asterisk
ENCODING 42
SWIDTH 750 0
DWIDTH 11 0
BBX 8 16 1 -4
BITMAP
02
02
3f
44
84
88
88
88
90
50
3f
20
20
ff
40
40
ENDCHAR
STARTCHAR plus
ENCODING 43
SWIDTH 750 0
DWIDTH 11 0
BBX 8 16 1 -4
BITMAP
02
02
fc
06
05
09
09
09
11
12
fc
20
20
ff
40
40
ENDCHAR
STARTCHAR comma
ENCODING 44
SWIDTH 477 0
DWIDTH 7 0
BBX 6 15 0 -4
BITMAP
48
48
48
48
4c
48
58
68
68
48
c8
48
48
48
48
ENDCHAR
STARTCHAR hyphen
ENCODING 45
SWIDTH 272 0
DWIDTH 4 0
BBX 3 15 0 -4
BITMAP
40
40
40
40
60
40
c0
40
40
40
40
40
40
40
40
ENDCHAR
STARTCHAR period
ENCODING 46
SWIDTH 204 0
DWIDTH 3 0
BBX 2 6 0 0
BITMAP
40
40
c0
c0
40
40
ENDCHAR
STARTCHAR slash
ENCODING 47
SWIDTH 409 0
DWIDTH 6 0
BBX 5 6 0 0
BITMAP
50
58
70
d0
50
50
ENDCHAR
STARTCHAR 0
ENCODING 48
SWIDTH 614 0
DWIDTH 9 0
BBX 8 10 -1 0
BITMAP
21
22
22
24
3f
30
30
20
60
a0
ENDCHAR
STARTCHAR 1
ENCODING 49
SWIDTH 682 0
DWIDTH 10 0
BBX 9 10 -1 0
BITMAP
2480
2500
2600
2600
2780
2c00
3400
2400
6400
a400
ENDCHAR
STARTCHAR 2
ENCODING 50
SWIDTH 614 0
DWIDTH 9 0
BBX 8 10 -1 0
BITMAP
21
22
3f
24
28
3f
30
20
60
a0
ENDCHAR
STARTCHAR 3
ENCODING 51
SWIDTH 682 0
DWIDTH 10 0
BBX 9 10 -1 0
BITMAP
2480
2500
2780
2600
2400
2c00
3780
2400
6400
a400
ENDCHAR
STARTCHAR 4
ENCODING 52
SWIDTH 750 0
DWIDTH 11 0
BBX 8 16 1 -4
BITMAP
02
02
84
e4
94
8c
8b
8b
9c
b0
d0
20
20
ff
40
40
ENDCHAR
STARTCHAR 5
ENCODING 53
SWIDTH 750 0
DWIDTH 11 0
BBX 7 16 2 -4
BITMAP
04
04
0a
0e
1a
72
92
d2
22
3a
26
40
40
fe
80
80
ENDCHAR
STARTCHAR 6
ENCODING 54
SWIDTH 750 0
DWIDTH 11 0
BBX 7 13 2 -3
BITMAP
04
04
0a
0e
1a
72
a2
e2
22
5a
46
80
80
ENDCHAR
STARTCHAR 7
ENCODING 55
SWIDTH 750 0
DWIDTH 11 0
BBX 8 13 1 -3
BITMAP
02
02
84
e4
98
8c
93
93
9c
b0
e0
40
40
ENDCHAR
STARTCHAR 8
ENCODING 56
SWIDTH 1023 0
DWIDTH 15 0
BBX 12 5 1 1
BITMAP
2100
4200
fff0
4400
2800
ENDCHAR
STARTCHAR 9
ENCODING 57
SWIDTH 1023 0
DWIDTH 15 0
BBX 12 5 1 1
BITMAP
0140
0220
fff0
0420
0840
ENDCHAR
STARTCHAR colon
ENCODING 58
SWIDTH 1023 0
DWIDTH 15 0
BBX 11 8 2 0
BITMAP
0100
1100
3fe0
c200
8200
4400
3fe0
1800
ENDCHAR
STARTCHAR semicolon
ENCODING 59
SWIDTH 1023 0
DWIDTH 15 0
BBX 11 8 1 0
BITMAP
0200
0500
ff80
0460
0820
0840
ff80
1100
ENDCHAR
STARTCHAR less
ENCODING 60
SWIDTH 1023 0
DWIDTH 15 0
BBX 10 9 2 -1
BITMAP
0200
2500
7f80
8440
8840
4880
3f00
2900
1000
ENDCHAR
STARTCHAR equal
ENCODING 61
SWIDTH 1023 0
DWIDTH 15 0
BBX 12 5 1 1
BITMAP
2140
4220
fff0
4420
2840
ENDCHAR
STARTCHAR greater
ENCODING 62
SWIDTH 750 0
DWIDTH 11 0
BBX 8 9 1 -1
BITMAP
18
5a
24
18
ff
18
24
5a
18
ENDCHAR
STARTCHAR question
ENCODING 63
SWIDTH 750 0
DWIDTH 11 0
BBX 8 6 1 1
BITMAP
3f
46
4a
52
62
fc
ENDCHAR
STARTCHAR at
ENCODING 64
SWIDTH 545 0
DWIDTH 8 0
BBX 5 14 1 -2
BITMAP
10
10
f8
18
28
28
78
28
28
28
48
f8
40
40
ENDCHAR
STARTCHAR A
ENCODING 65
SWIDTH 750 0
DWIDTH 11 0
BBX 10 10 0 0
BITMAP
0800
0c00
0c00
1a00
1a00
1500
3d00
2500
2280
ffc0
ENDCHAR
STARTCHAR B
ENCODING 66
SWIDTH 545 0
DWIDTH 8 0
BBX 9 10 0 0
BITMAP
fe00
5900
5900
5e00
5e00
5500
5480
5480
5500
fe00
ENDCHAR
STARTCHAR C
ENCODING 67
SWIDTH 614 0
DWIDTH 9 0
BBX 8 10 1 0
BITMAP
1f
2f
51
91
90
90
90
51
29
1e
ENDCHAR
STARTCHAR D
ENCODING 68
SWIDTH 682 0
DWIDTH 10 0
BBX 10 10 0 0
BITMAP
fe00
5380
5280
5240
5240
5240
5240
5280
5300
fe00
ENDCHAR
STARTCHAR E
ENCODING 69
SWIDTH 750 0
DWIDTH 11 0
BBX 10 10 0 0
BITMAP
ff80
4980
4c80
4c00
4c00
4c00
4c40
4880
4980
ff80
ENDCHAR
STARTCHAR F
ENCODING 70
SWIDTH 614 0
DWIDTH 9 0
BBX 9 10 0 0
BITMAP
ff80
4b80
4d80
4c00
4c00
4c00
4c00
4800
4800
fe00
ENDCHAR
STARTCHAR G
ENCODING 71
SWIDTH 750 0
DWIDTH 11 0
BBX 9 10 1 0
BITMAP
1f00
2f00
5100
9100
9000
9f80
9900
5900
2900
1e00
ENDCHAR
STARTCHAR H
ENCODING 72
SWIDTH 750 0
DWIDTH 11 0
BBX 9 10 1 0
BITMAP
f780
5500
5500
5500
5d00
5500
5500
5500
5500
f780
ENDCHAR
STARTCHAR I
ENCODING 73
SWIDTH 409 0
DWIDTH 6 0
BBX 5 10 1 0
BITMAP
f8
50
50
50
50
50
50
50
50
f8
ENDCHAR
STARTCHAR J
ENCODING 74
SWIDTH 477 0
DWIDTH 7 0
BBX 6 11 0 -1
BITMAP
7c
28
28
28
28
28
28
28
f8
b8
70
ENDCHAR
STARTCHAR K
ENCODING 75
SWIDTH 750 0
DWIDTH 11 0
BBX 10 10 1 0
BITMAP
f780
5200
5600
5600
5a00
5900
5900
5500
5480
ffc0
ENDCHAR
STARTCHAR L
ENCODING 76
SWIDTH 682 0
DWIDTH 10 0
BBX 10 10 0 0
BITMAP
fc00
4800
4800
4800
4800
4800
4840
4880
4980
ff80
ENDCHAR
STARTCHAR M
ENCODING 77
SWIDTH 955 0
DWIDTH 14 0
BBX 13 10 0 0
BITMAP
f878
2850
28d0
34d0
35d0
2b50
2b50
2650
2650
72f8
ENDCHAR
STARTCHAR N
ENCODING 78
SWIDTH 750 0
DWIDTH 11 0
BBX 9 10 1 0
BITMAP
fb80
5500
5300
4b00
4900
4500
4500
4300
4300
e100
ENDCHAR
STARTCHAR O
ENCODING 79
SWIDTH 750 0
DWIDTH 11 0
BBX 11 10 0 0
BITMAP
1f00
2a80
5140
9120
9120
9120
9120
5140
2a80
1f00
ENDCHAR
STARTCHAR P
ENCODING 80
SWIDTH 614 0
DWIDTH 9 0
BBX 9 10 0 0
BITMAP
ff00
5480
5480
5f00
5000
5000
5000
5000
5000
f800
ENDCHAR
STARTCHAR Q
ENCODING 81
SWIDTH 750 0
DWIDTH 11 0
BBX 11 12 0 -2
BITMAP
1f00
2a80
5140
9120
9120
9120
9120
5140
2a80
1f00
0500
03c0
ENDCHAR
STARTCHAR R
ENCODING 82
SWIDTH 750 0
DWIDTH 11 0
BBX 10 10 0 0
BITMAP
ff00
5480
5480
5f00
5500
5500
5480
5480
5280
fbc0
ENDCHAR
STARTCHAR S
ENCODING 83
SWIDTH 545 0
DWIDTH 8 0
BBX 6 10 1 0
BITMAP
7c
cc
c4
b4
88
64
9c
84
c4
f8
ENDCHAR
STARTCHAR T
ENCODING 84
SWIDTH 682 0
DWIDTH 10 0
BBX 9 10 1 0
BITMAP
ff80
d580
9480
9480
1400
1400
1400
1400
1400
3e00
ENDCHAR
STARTCHAR U
ENCODING 85
SWIDTH 750 0
DWIDTH 11 0
BBX 10 10 0 0
BITMAP
fdc0
4880
4880
4880
4880
4880
4880
4880
2900
1e00
ENDCHAR
STARTCHAR V
ENCODING 86
SWIDTH 750 0
DWIDTH 11 0
BBX 10 10 0 0
BITMAP
ffc0
5180
2900
2900
2900
1600
1600
0c00
0c00
0400
ENDCHAR
STARTCHAR W
ENCODING 87
SWIDTH 1023 0
DWIDTH 15 0
BBX 15 10 0 0
BITMAP
f7fe
514c
514c
29c8
2aa8
1ab0
1450
1450
0820
0820
ENDCHAR
STARTCHAR X
ENCODING 88
SWIDTH 750 0
DWIDTH 11 0
BBX 12 10 -1 0
BITMAP
ffe0
4280
2300
1300
0900
0880
0c80
1240
3220
7ff0
ENDCHAR
STARTCHAR Y
ENCODING 89
SWIDTH 750 0
DWIDTH 11 0
BBX 10 10 0 0
BITMAP
ffc0
2480
2280
1100
0900
0500
0500
0500
0500
0f80
ENDCHAR
STARTCHAR Z
ENCODING 90
SWIDTH 682 0
DWIDTH 10 0
BBX 9 10 1 0
BITMAP
ff00
d100
9200
2200
2400
4400
4880
8980
9300
ff00
ENDCHAR
STARTCHAR bracketleft
ENCODING 91
SWIDTH 1842 0
DWIDTH 27 0
BBX 26 4 0 8
BITMAP
001e0000
03e1f000
3e001f00
e00001c0
ENDCHAR
STARTCHAR leftdblquote
ENCODING 92
SWIDTH 2320 0
DWIDTH 34 0
BBX 33 4 0 8
BITMAP
0003e00000
00fc1f8000
3f8000fe00
e000000380
ENDCHAR
STARTCHAR bracketright
ENCODING 93
SWIDTH 1842 0
DWIDTH 27 0
BBX 26 4 0 8
BITMAP
03f000c0
3ffe07c0
f81fff00
c003f000
ENDCHAR
STARTCHAR circumflex
ENCODING 94
SWIDTH 2320 0
DWIDTH 34 0
BBX 33 4 0 9
BITMAP
03fe000180
3fffe01f80
fc03fffe00
c0003fe000
ENDCHAR
STARTCHAR leftquote
ENCODING 96
SWIDTH 545 0
DWIDTH 8 0
BBX 5 10 1 0
BITMAP
08
08
08
08
38
08
08
08
08
f8
ENDCHAR
STARTCHAR a
ENCODING 97
SWIDTH 614 0
DWIDTH 9 0
BBX 7 10 1 0
BITMAP
70
8c
04
02
02
e2
82
84
8c
70
ENDCHAR
STARTCHAR f
ENCODING 102
SWIDTH 682 0
DWIDTH 10 0
BBX 7 10 1 0
BITMAP
ee
aa
44
44
82
82
82
82
44
38
ENDCHAR
STARTCHAR g
ENCODING 103
SWIDTH 545 0
DWIDTH 8 0
BBX 5 10 1 0
BITMAP
c8
b8
d0
08
78
88
88
88
90
70
ENDCHAR
STARTCHAR h
ENCODING 104
SWIDTH 750 0
DWIDTH 11 0
BBX 8 6 1 1
BITMAP
ff
00
01
71
89
86
ENDCHAR
STARTCHAR i
ENCODING 105
SWIDTH 682 0
DWIDTH 10 0
BBX 8 11 1 0
BITMAP
fc
7e
02
02
02
02
02
02
02
02
ff
ENDCHAR
STARTCHAR j
ENCODING 106
SWIDTH 409 0
DWIDTH 6 0
BBX 4 11 1 0
BITMAP
c0
60
20
20
20
30
30
30
30
30
e0
ENDCHAR
STARTCHAR k
ENCODING 107
SWIDTH 682 0
DWIDTH 10 0
BBX 8 11 1 0
BITMAP
fc
7e
02
02
02
03
03
03
03
03
02
ENDCHAR
STARTCHAR l
ENCODING 108
SWIDTH 750 0
DWIDTH 11 0
BBX 8 9 1 -1
BITMAP
01
06
18
60
86
60
18
06
01
ENDCHAR
STARTCHAR m
ENCODING 109
SWIDTH 750 0
DWIDTH 11 0
BBX 8 9 1 -1
BITMAP
80
60
18
06
61
06
18
60
80
ENDCHAR
STARTCHAR n
ENCODING 110
SWIDTH 750 0
DWIDTH 11 0
BBX 6 7 2 0
BITMAP
84
c8
b0
a0
b0
c8
84
ENDCHAR
STARTCHAR o
ENCODING 111
SWIDTH 750 0
DWIDTH 11 0
BBX 6 7 2 0
BITMAP
84
4c
34
24
34
4c
84
ENDCHAR
STARTCHAR p
ENCODING 112
SWIDTH 204 0
DWIDTH 3 0
BBX 1 6 1 0
BITMAP
80
80
80
80
80
80
ENDCHAR
STARTCHAR q
ENCODING 113
SWIDTH 409 0
DWIDTH 6 0
BBX 3 6 1 0
BITMAP
a0
a0
a0
a0
a0
a0
ENDCHAR
STARTCHAR r
ENCODING 114
SWIDTH 750 0
DWIDTH 11 0
BBX 8 6 1 0
BITMAP
80
60
10
08
06
01
ENDCHAR
STARTCHAR s
ENCODING 115
SWIDTH 750 0
DWIDTH 11 0
BBX 8 3 1 2
BITMAP
71
ff
8e
ENDCHAR
STARTCHAR t
ENCODING 116
SWIDTH 750 0
DWIDTH 11 0
BBX 8 7 1 0
BITMAP
71
ff
8e
00
71
ff
8e
ENDCHAR
STARTCHAR u
ENCODING 117
SWIDTH 750 0
DWIDTH 11 0
BBX 8 10 1 -2
BITMAP
61
99
86
00
61
99
86
00
00
ff
ENDCHAR
STARTCHAR v
ENCODING 118
SWIDTH 750 0
DWIDTH 11 0
BBX 8 17 1 -6
BITMAP
80
80
40
3e
3f
40
80
80
00
00
61
99
86
00
61
99
86
ENDCHAR
STARTCHAR w
ENCODING 119
SWIDTH 750 0
DWIDTH 11 0
BBX 8 17 1 -6
BITMAP
01
01
02
7c
fc
02
01
01
00
00
61
99
86
00
61
99
86
ENDCHAR
STARTCHAR x
ENCODING 120
SWIDTH 1023 0
DWIDTH 15 0
BBX 13 6 1 0
BITMAP
0fc0
1020
2010
a010
f008
0008
ENDCHAR
STARTCHAR y
ENCODING 121
SWIDTH 1023 0
DWIDTH 15 0
BBX 14 6 0 0
BITMAP
1fc0
2020
4010
4014
803c
8000
ENDCHAR
STARTCHAR z
ENCODING 122
SWIDTH 750 0
DWIDTH 11 0
BBX 8 9 1 -1
BITMAP
3f
38
70
70
7c
70
e0
e0
e0
ENDCHAR
STARTCHAR endash
ENCODING 123
SWIDTH 682 0
DWIDTH 10 0
BBX 9 6 1 0
BITMAP
3180
5700
2c00
3c00
6500
c600
ENDCHAR
STARTCHAR emdash
ENCODING 124
SWIDTH 545 0
DWIDTH 8 0
BBX 8 10 0 0
BITMAP
f8
48
48
4f
4e
4e
4a
4a
4a
fe
ENDCHAR
STARTCHAR quotedbl
ENCODING 125
SWIDTH 545 0
DWIDTH 8 0
BBX 5 10 1 0
BITMAP
60
38
60
20
70
50
50
50
a8
90
ENDCHAR
STARTCHAR hungarumlaut
ENCODING 126
SWIDTH 545 0
DWIDTH 8 0
BBX 5 10 1 0
BITMAP
60
70
20
20
70
50
50
50
a8
90
ENDCHAR
STARTCHAR dieresis
ENCODING 127
SWIDTH 409 0
DWIDTH 6 0
BBX 4 6 1 0
BITMAP
60
10
10
70
10
e0
ENDCHAR
ENDFONT
